<svg id="aea29d3d-47c3-422d-83e6-7909e5cf257c" data-name="Capa 1" xmlns="http://www.w3.org/2000/svg" viewBox="0 0 437.86 57.14"><path d="M246,291.29a2.09,2.09,0,0,0-1.71,2.67l.31,1.72,4.22-.74-.31-1.72A2.06,2.06,0,0,0,246,291.29Z" transform="translate(-203.25 -268.84)" fill="#fff"/><path d="M260,292.45a28.56,28.56,0,1,0-23.17,33.09A28.56,28.56,0,0,0,260,292.45Zm-41.6,14.74c-3.87.68-6.77-1.2-7.41-4.79l-1.41-8a.17.17,0,0,1,.14-.19l3.89-.69a.17.17,0,0,1,.19.14l1.31,7.4a2.15,2.15,0,1,0,4.22-.75l-1.31-7.4a.18.18,0,0,1,.14-.19L222,292a.17.17,0,0,1,.19.14l1.41,8C224.24,303.76,222.17,306.52,218.35,307.19Zm21-3.66-.07,0a.16.16,0,0,1-.1,0l-9.28-4.78,1,5.68a.17.17,0,0,1-.13.2l-3.89.68a.17.17,0,0,1-.2-.13l-2.41-13.7a.17.17,0,0,1,.06-.16.2.2,0,0,1,.17,0l9.21,4.36-.95-5.35a.17.17,0,0,1,.14-.19l3.89-.69a.16.16,0,0,1,.19.13l2.43,13.79A.16.16,0,0,1,239.33,303.53Zm14.63-3-3.89.69a.19.19,0,0,1-.2-.14l-.46-2.63-4.22.74.46,2.64a.16.16,0,0,1-.13.19l-3.89.69a.19.19,0,0,1-.2-.14l-1.4-7.95c-.64-3.61,1.42-6.39,5.25-7.06s6.77,1.21,7.41,4.83l1.4,7.95A.16.16,0,0,1,254,300.55Z" transform="translate(-203.25 -268.84)" fill="#fff"/><path d="M272.51,294.06h-2.7l-.48,1.53h-2.11l3-8.19h1.86l3,8.19H273Zm-2.23-1.52H272l-.88-2.84Z" transform="translate(-203.25 -268.84)" fill="#fff"/><path d="M278.64,292.7h-1.07v2.89h-2V287.4h3.22a3.62,3.62,0,0,1,2.28.65,2.18,2.18,0,0,1,.82,1.83,2.65,2.65,0,0,1-.34,1.41,2.43,2.43,0,0,1-1.09.91l1.71,3.31v.08h-2.11Zm-1.07-1.52h1.25a1.11,1.11,0,0,0,.85-.3,1.14,1.14,0,0,0,.28-.83,1.16,1.16,0,0,0-.28-.83,1.14,1.14,0,0,0-.85-.3h-1.25Z" transform="translate(-203.25 -268.84)" fill="#fff"/><path d="M289.3,288.93h-2.46v6.66h-2v-6.66h-2.41V287.4h6.85Z" transform="translate(-203.25 -268.84)" fill="#fff"/><path d="M295,292.12h-3.11v2h3.67v1.51H289.9V287.4h5.65v1.53h-3.68v1.72H295Z" transform="translate(-203.25 -268.84)" fill="#fff"/><path d="M300.41,293.42a.81.81,0,0,0-.31-.68,3.66,3.66,0,0,0-1.08-.5,10.64,10.64,0,0,1-1.26-.5,2.39,2.39,0,0,1-1.59-2.15,1.91,1.91,0,0,1,.4-1.2,2.51,2.51,0,0,1,1.12-.81,4.42,4.42,0,0,1,1.63-.29,3.86,3.86,0,0,1,1.59.31,2.47,2.47,0,0,1,1.08.9,2.34,2.34,0,0,1,.39,1.33h-2a1,1,0,0,0-.3-.77,1.18,1.18,0,0,0-.83-.28,1.4,1.4,0,0,0-.84.23.74.74,0,0,0-.3.6.72.72,0,0,0,.33.57,4.26,4.26,0,0,0,1.19.53,7.27,7.27,0,0,1,1.4.59,2.34,2.34,0,0,1,1.32,2.11,2,2,0,0,1-.81,1.68,3.59,3.59,0,0,1-2.22.62,4.38,4.38,0,0,1-1.8-.36,2.76,2.76,0,0,1-1.22-1,2.55,2.55,0,0,1-.41-1.43h2a1.28,1.28,0,0,0,.34,1,1.62,1.62,0,0,0,1.11.31,1.26,1.26,0,0,0,.77-.21A.7.7,0,0,0,300.41,293.42Z" transform="translate(-203.25 -268.84)" fill="#fff"/><path d="M267.86,307.29V299.1h2.64a3.87,3.87,0,0,1,1.95.49,3.5,3.5,0,0,1,1.36,1.39,4.33,4.33,0,0,1,.49,2v.38a4.15,4.15,0,0,1-.48,2,3.47,3.47,0,0,1-1.34,1.4,3.7,3.7,0,0,1-1.92.51Zm2-6.67v5.15h.68a1.55,1.55,0,0,0,1.31-.6,3,3,0,0,0,.45-1.8V303a3,3,0,0,0-.45-1.79,1.58,1.58,0,0,0-1.33-.6Z" transform="translate(-203.25 -268.84)" fill="#fff"/><path d="M278.19,304.39h-1.07v2.9h-2V299.1h3.23a3.56,3.56,0,0,1,2.27.64,2.19,2.19,0,0,1,.83,1.83,2.69,2.69,0,0,1-.35,1.42,2.46,2.46,0,0,1-1.08.91l1.71,3.3v.09h-2.12Zm-1.07-1.52h1.25a1.14,1.14,0,0,0,.84-.29,1.33,1.33,0,0,0,0-1.66,1.1,1.1,0,0,0-.84-.3h-1.25Z" transform="translate(-203.25 -268.84)" fill="#fff"/><path d="M287.35,305.76h-2.7l-.47,1.53h-2.11l3-8.19h1.86l3,8.19h-2.12Zm-2.23-1.53h1.76l-.88-2.84Z" transform="translate(-203.25 -268.84)" fill="#fff"/><path d="M293,299.1l1.83,5.7,1.82-5.7h2.6v8.19h-2v-1.91l.19-3.92-2,5.83h-1.3l-2-5.83.19,3.92v1.91h-2V299.1Z" transform="translate(-203.25 -268.84)" fill="#fff"/><path d="M305.07,305.76h-2.71l-.47,1.53h-2.11l3-8.19h1.86l3,8.19h-2.12Zm-2.24-1.53h1.77l-.89-2.84ZM304,296.9h2l-1.56,1.77h-1.55Z" transform="translate(-203.25 -268.84)" fill="#fff"/><path d="M313.61,300.62h-2.46v6.67h-2v-6.67h-2.41V299.1h6.85Z" transform="translate(-203.25 -268.84)" fill="#fff"/><path d="M316.24,307.29h-2V299.1h2Z" transform="translate(-203.25 -268.84)" fill="#fff"/><path d="M324.07,304.52a3,3,0,0,1-.47,1.51,2.79,2.79,0,0,1-1.18,1,4,4,0,0,1-1.74.36,3.2,3.2,0,0,1-2.54-1,4.33,4.33,0,0,1-.93-3V303a4.92,4.92,0,0,1,.42-2.1,3.18,3.18,0,0,1,1.2-1.4,3.39,3.39,0,0,1,1.83-.49,3.53,3.53,0,0,1,2.39.78,3.09,3.09,0,0,1,1,2.17h-2a1.49,1.49,0,0,0-.37-1.08,1.6,1.6,0,0,0-1.08-.32,1.16,1.16,0,0,0-1.08.55,3.51,3.51,0,0,0-.36,1.76v.58a4,4,0,0,0,.32,1.87,1.2,1.2,0,0,0,1.14.56,1.49,1.49,0,0,0,1-.32,1.32,1.32,0,0,0,.38-1Z" transform="translate(-203.25 -268.84)" fill="#fff"/><path d="M329.31,305.76H326.6l-.47,1.53H324l3-8.19h1.86l3,8.19h-2.12Zm-2.23-1.53h1.76l-.89-2.84Z" transform="translate(-203.25 -268.84)" fill="#fff"/><path d="M336.4,305.11a.81.81,0,0,0-.31-.67,3.79,3.79,0,0,0-1.08-.5,12.7,12.7,0,0,1-1.26-.5,2.4,2.4,0,0,1-1.59-2.15,1.87,1.87,0,0,1,.4-1.2,2.54,2.54,0,0,1,1.12-.82,4.42,4.42,0,0,1,1.63-.28,3.78,3.78,0,0,1,1.58.31,2.49,2.49,0,0,1,1.09.9,2.34,2.34,0,0,1,.39,1.33h-2a1,1,0,0,0-.31-.78,1.19,1.19,0,0,0-.82-.27,1.31,1.31,0,0,0-.84.23.68.68,0,0,0,0,1.16,4,4,0,0,0,1.19.53A7.83,7.83,0,0,1,337,303a2.33,2.33,0,0,1,1.33,2.11,2,2,0,0,1-.81,1.69,3.59,3.59,0,0,1-2.22.61,4.32,4.32,0,0,1-1.8-.36,2.67,2.67,0,0,1-1.22-1,2.61,2.61,0,0,1-.41-1.44h2a1.27,1.27,0,0,0,.34,1,1.62,1.62,0,0,0,1.11.32,1.28,1.28,0,0,0,.77-.21A.72.72,0,0,0,336.4,305.11Z" transform="translate(-203.25 -268.84)" fill="#fff"/><path d="M486.62,287.46H481a.23.23,0,0,0-.23.24v7.76l-11.87-8.41a.23.23,0,0,0-.25,0,.23.23,0,0,0-.13.21v19.86a.24.24,0,0,0,.24.24h5.65a.23.23,0,0,0,.23-.24v-8.25l11.87,9a.24.24,0,0,0,.14.05l.11,0a.23.23,0,0,0,.13-.21v-20A.24.24,0,0,0,486.62,287.46Z" transform="translate(-203.25 -268.84)" fill="#fff"/><path d="M465.19,287.46h-5.64a.24.24,0,0,0-.24.24v10.73c0,2.05-1.19,3.31-3.06,3.31s-3.06-1.3-3.06-3.31V287.7a.24.24,0,0,0-.24-.24h-5.64a.24.24,0,0,0-.24.24v11.58c0,5.22,3.63,8.58,9.24,8.58s9.12-3.36,9.12-8.58V287.7A.24.24,0,0,0,465.19,287.46Z" transform="translate(-203.25 -268.84)" fill="#fff"/><path d="M499,287c-5.54,0-9.12,3.38-9.12,8.63v11.53a.24.24,0,0,0,.24.24h5.64a.24.24,0,0,0,.24-.24V303.3h6.12v3.82a.24.24,0,0,0,.24.24H508a.24.24,0,0,0,.24-.24V295.59C508.28,290.34,504.65,287,499,287Zm3.12,11.22H496v-2.5c0-2.05,1.19-3.33,3.06-3.33s3.06,1.28,3.06,3.33Z" transform="translate(-203.25 -268.84)" fill="#fff"/><path d="M518.77,287.47v5.36a3.09,3.09,0,0,1-.39,1.58,2.53,2.53,0,0,1-1.11,1,3.86,3.86,0,0,1-1.72.35,3.37,3.37,0,0,1-2.35-.78,2.72,2.72,0,0,1-.88-2.12v-5.4h2v5.44c0,.89.44,1.34,1.25,1.34a1.23,1.23,0,0,0,.93-.33,1.59,1.59,0,0,0,.32-1.1v-5.35Z" transform="translate(-203.25 -268.84)" fill="#fff"/><path d="M526.7,295.66h-2l-2.9-5.1v5.1h-2v-8.19h2l2.9,5.1v-5.1h2Z" transform="translate(-203.25 -268.84)" fill="#fff"/><path d="M529.85,295.66h-2v-8.19h2Z" transform="translate(-203.25 -268.84)" fill="#fff"/><path d="M534.16,293.43l1.63-6H538l-2.75,8.19h-2.16l-2.74-8.19h2.19Z" transform="translate(-203.25 -268.84)" fill="#fff"/><path d="M543.5,292.18h-3.1v2h3.66v1.52h-5.64v-8.19h5.65V289H540.4v1.72h3.1Z" transform="translate(-203.25 -268.84)" fill="#fff"/><path d="M547.89,292.76h-1.06v2.9h-2v-8.19h3.22a3.6,3.6,0,0,1,2.28.65,2.18,2.18,0,0,1,.82,1.82,2.69,2.69,0,0,1-.34,1.42,2.44,2.44,0,0,1-1.09.91l1.71,3.3v.09h-2.11Zm-1.06-1.52h1.24a1.11,1.11,0,0,0,.85-.29,1.14,1.14,0,0,0,.28-.83,1.16,1.16,0,0,0-.28-.83,1.11,1.11,0,0,0-.85-.3h-1.24Z" transform="translate(-203.25 -268.84)" fill="#fff"/><path d="M556.15,293.48a.81.81,0,0,0-.3-.67,3.79,3.79,0,0,0-1.08-.5,10.64,10.64,0,0,1-1.26-.5,2.39,2.39,0,0,1-1.59-2.15,1.89,1.89,0,0,1,.4-1.2,2.45,2.45,0,0,1,1.12-.81,4.42,4.42,0,0,1,1.63-.29,3.78,3.78,0,0,1,1.58.31,2.49,2.49,0,0,1,1.09.9,2.34,2.34,0,0,1,.39,1.33h-2a1,1,0,0,0-.31-.77,1.16,1.16,0,0,0-.83-.28,1.36,1.36,0,0,0-.83.23.75.75,0,0,0-.31.6.74.74,0,0,0,.34.57,4.31,4.31,0,0,0,1.19.52,7.83,7.83,0,0,1,1.39.59,2.35,2.35,0,0,1,1.33,2.11,2,2,0,0,1-.81,1.69,3.59,3.59,0,0,1-2.22.61,4.32,4.32,0,0,1-1.8-.36,2.67,2.67,0,0,1-1.22-1,2.61,2.61,0,0,1-.41-1.44h2a1.27,1.27,0,0,0,.34,1,1.62,1.62,0,0,0,1.11.32,1.28,1.28,0,0,0,.77-.21A.7.7,0,0,0,556.15,293.48Z" transform="translate(-203.25 -268.84)" fill="#fff"/><path d="M561,295.66h-2v-8.19h2Z" transform="translate(-203.25 -268.84)" fill="#fff"/><path d="M562.2,295.66v-8.19h2.64a4,4,0,0,1,1.95.49,3.41,3.41,0,0,1,1.35,1.39,4.1,4.1,0,0,1,.49,2v.38a4.21,4.21,0,0,1-.47,2,3.51,3.51,0,0,1-1.34,1.39,3.71,3.71,0,0,1-1.93.51Zm2-6.66v5.14h.69a1.52,1.52,0,0,0,1.3-.6,3,3,0,0,0,.46-1.8v-.35a2.88,2.88,0,0,0-.46-1.79,1.55,1.55,0,0,0-1.32-.6Z" transform="translate(-203.25 -268.84)" fill="#fff"/><path d="M573.71,294.13H571l-.47,1.53h-2.11l3-8.19h1.85l3,8.19h-2.12Zm-2.23-1.52h1.76l-.89-2.84Z" transform="translate(-203.25 -268.84)" fill="#fff"/><path d="M576.74,295.66v-8.19h2.64a4,4,0,0,1,2,.49,3.47,3.47,0,0,1,1.35,1.39,4.21,4.21,0,0,1,.49,2v.38a4.33,4.33,0,0,1-.47,2,3.58,3.58,0,0,1-1.34,1.39,3.74,3.74,0,0,1-1.93.51Zm2-6.66v5.14h.69a1.53,1.53,0,0,0,1.3-.6,3,3,0,0,0,.46-1.8v-.35a2.88,2.88,0,0,0-.46-1.79,1.55,1.55,0,0,0-1.32-.6Z" transform="translate(-203.25 -268.84)" fill="#fff"/><path d="M593.43,295.66h-2l-2.9-5.1v5.1h-2v-8.19h2l2.89,5.1v-5.1h2Z" transform="translate(-203.25 -268.84)" fill="#fff"/><path d="M599.15,294.13h-2.7l-.47,1.53h-2.11l3-8.19h1.86l3,8.19h-2.12Zm-2.23-1.52h1.76l-.88-2.84Z" transform="translate(-203.25 -268.84)" fill="#fff"/><path d="M608.43,292.89a3,3,0,0,1-.46,1.51,2.79,2.79,0,0,1-1.18,1,4,4,0,0,1-1.74.36,3.2,3.2,0,0,1-2.54-1,4.33,4.33,0,0,1-.93-3v-.4a4.93,4.93,0,0,1,.42-2.11,3.15,3.15,0,0,1,1.2-1.39,3.36,3.36,0,0,1,1.82-.5,3.54,3.54,0,0,1,2.4.79,3.09,3.09,0,0,1,1,2.16h-2a1.41,1.41,0,0,0-.38-1.07,1.52,1.52,0,0,0-1.08-.33,1.15,1.15,0,0,0-1.07.55,3.54,3.54,0,0,0-.36,1.76v.58a4,4,0,0,0,.32,1.87,1.2,1.2,0,0,0,1.14.56,1.49,1.49,0,0,0,1-.32,1.32,1.32,0,0,0,.38-1Z" transform="translate(-203.25 -268.84)" fill="#fff"/><path d="M611.22,295.66h-2v-8.19h2Z" transform="translate(-203.25 -268.84)" fill="#fff"/><path d="M619.27,291.73a4.76,4.76,0,0,1-.44,2.12,3.3,3.3,0,0,1-1.26,1.42,3.47,3.47,0,0,1-1.87.5,3.57,3.57,0,0,1-1.85-.48,3.28,3.28,0,0,1-1.26-1.37,4.67,4.67,0,0,1-.48-2.06v-.46a4.9,4.9,0,0,1,.44-2.12,3.31,3.31,0,0,1,1.27-1.42,3.56,3.56,0,0,1,1.87-.5,3.52,3.52,0,0,1,1.86.49,3.42,3.42,0,0,1,1.27,1.41,4.7,4.7,0,0,1,.45,2.1Zm-2-.34a3.45,3.45,0,0,0-.41-1.85,1.31,1.31,0,0,0-1.17-.63c-1,0-1.51.74-1.57,2.22v.6a3.48,3.48,0,0,0,.4,1.85,1.38,1.38,0,0,0,2.34,0,3.48,3.48,0,0,0,.41-1.82Z" transform="translate(-203.25 -268.84)" fill="#fff"/><path d="M627,295.66h-2l-2.9-5.1v5.1h-2v-8.19h2l2.9,5.1v-5.1h2Z" transform="translate(-203.25 -268.84)" fill="#fff"/><path d="M632.67,294.13H630l-.47,1.53h-2.11l3-8.19h1.85l3,8.19h-2.12Zm-2.23-1.52h1.76l-.89-2.84Z" transform="translate(-203.25 -268.84)" fill="#fff"/><path d="M637.67,294.14h3.44v1.52H635.7v-8.19h2Z" transform="translate(-203.25 -268.84)" fill="#fff"/><path d="M512.35,307.35v-8.19H515a3.88,3.88,0,0,1,2,.49,3.54,3.54,0,0,1,1.35,1.39,4.21,4.21,0,0,1,.49,2v.38a4.26,4.26,0,0,1-.47,2,3.54,3.54,0,0,1-1.34,1.4,3.94,3.94,0,0,1-1.93.51Zm2-6.67v5.15H515a1.52,1.52,0,0,0,1.3-.61,2.9,2.9,0,0,0,.46-1.79v-.36a2.87,2.87,0,0,0-.46-1.78,1.54,1.54,0,0,0-1.33-.61Z" transform="translate(-203.25 -268.84)" fill="#fff"/><path d="M524.65,303.87h-3.1v2h3.66v1.52h-5.64v-8.19h5.65v1.52h-3.67v1.73h3.1Z" transform="translate(-203.25 -268.84)" fill="#fff"/><path d="M530.4,305.83h3.43v1.52h-5.41v-8.19h2Z" transform="translate(-203.25 -268.84)" fill="#fff"/><path d="M539.35,305.82h-2.7l-.48,1.53h-2.1l3-8.19h1.85l3,8.19h-2.12Zm-2.23-1.53h1.76l-.88-2.84Z" transform="translate(-203.25 -268.84)" fill="#fff"/><path d="M546.38,305.17a.81.81,0,0,0-.31-.67A3.66,3.66,0,0,0,545,304a12.7,12.7,0,0,1-1.26-.5,2.4,2.4,0,0,1-1.59-2.15,1.87,1.87,0,0,1,.4-1.2,2.51,2.51,0,0,1,1.12-.81,4.23,4.23,0,0,1,1.63-.29,3.78,3.78,0,0,1,1.58.31,2.49,2.49,0,0,1,1.09.9,2.34,2.34,0,0,1,.39,1.33h-2a1,1,0,0,0-.3-.78,1.22,1.22,0,0,0-.83-.27,1.4,1.4,0,0,0-.84.23.72.72,0,0,0-.3.59.75.75,0,0,0,.33.58,4.31,4.31,0,0,0,1.19.52,7.83,7.83,0,0,1,1.39.59,2.33,2.33,0,0,1,1.33,2.11,2,2,0,0,1-.81,1.69,3.59,3.59,0,0,1-2.22.61,4.38,4.38,0,0,1-1.8-.36,2.69,2.69,0,0,1-1.22-1,2.54,2.54,0,0,1-.4-1.43h2a1.27,1.27,0,0,0,.34,1,1.62,1.62,0,0,0,1.11.32,1.26,1.26,0,0,0,.77-.22A.69.69,0,0,0,546.38,305.17Z" transform="translate(-203.25 -268.84)" fill="#fff"/><path d="M556.42,305.82h-2.71l-.47,1.53h-2.11l3-8.19H556l3,8.19H556.9Zm-2.23-1.53H556l-.89-2.84Z" transform="translate(-203.25 -268.84)" fill="#fff"/><path d="M562.49,304.45h-1.07v2.9h-2v-8.19h3.22a3.62,3.62,0,0,1,2.28.65,2.18,2.18,0,0,1,.82,1.82,2.6,2.6,0,0,1-.35,1.42,2.53,2.53,0,0,1-1.08.91l1.71,3.3v.09h-2.11Zm-1.07-1.52h1.25a1.13,1.13,0,1,0,0-2.25h-1.25Z" transform="translate(-203.25 -268.84)" fill="#fff"/><path d="M573.08,300.68h-2.45v6.67h-2v-6.67h-2.41v-1.52h6.84Z" transform="translate(-203.25 -268.84)" fill="#fff"/><path d="M578.71,303.87H575.6v2h3.67v1.52h-5.64v-8.19h5.65v1.52H575.6v1.73h3.11Z" transform="translate(-203.25 -268.84)" fill="#fff"/><path d="M584.08,305.17a.79.79,0,0,0-.31-.67,3.71,3.71,0,0,0-1.07-.5,11,11,0,0,1-1.26-.5,2.41,2.41,0,0,1-1.6-2.15,1.93,1.93,0,0,1,.4-1.2,2.56,2.56,0,0,1,1.12-.81,4.26,4.26,0,0,1,1.63-.29,3.86,3.86,0,0,1,1.59.31,2.55,2.55,0,0,1,1.09.9,2.41,2.41,0,0,1,.38,1.33h-2a1,1,0,0,0-.3-.78,1.22,1.22,0,0,0-.83-.27,1.42,1.42,0,0,0-.84.23.72.72,0,0,0-.3.59.75.75,0,0,0,.33.58,4.45,4.45,0,0,0,1.19.52,8,8,0,0,1,1.4.59,2.34,2.34,0,0,1,1.32,2.11,2,2,0,0,1-.81,1.69,3.59,3.59,0,0,1-2.22.61,4.38,4.38,0,0,1-1.8-.36,2.66,2.66,0,0,1-1.21-1,2.47,2.47,0,0,1-.41-1.43h2a1.23,1.23,0,0,0,.34,1,1.57,1.57,0,0,0,1.1.32,1.29,1.29,0,0,0,.78-.22A.7.7,0,0,0,584.08,305.17Z" transform="translate(-203.25 -268.84)" fill="#fff"/></svg>